HIERARCHY
ROOT Hips
{
	OFFSET -1.602300 6.242603 43.997101
	CHANNELS 6 Xposition Yposition Zposition Zrotation Xrotation Yrotation
	JOINT Chest
	{
		OFFSET -0.204900 1.598101 7.917301
		CHANNELS 6 Xposition Yposition Zposition Zrotation Xrotation Yrotation
		JOINT Chest2
		{
			OFFSET 0.000000 0.000000 3.404099
			CHANNELS 6 Xposition Yposition Zposition Zrotation Xrotation Yrotation
			JOINT Neck
			{
				OFFSET 0.000000 0.000000 7.928600
				CHANNELS 6 Xposition Yposition Zposition Zrotation Xrotation Yrotation
				JOINT Head
				{
					OFFSET 0.000000 0.000000 2.173897
					CHANNELS 6 Xposition Yposition Zposition Zrotation Xrotation Yrotation
					End Site
					{
						OFFSET 0.000000 0.000001 10.404503
					}
				}
			}
			JOINT LeftCollar
			{
				OFFSET 2.833800 -1.396299 4.843300
				CHANNELS 6 Xposition Yposition Zposition Zrotation Xrotation Yrotation
				JOINT LeftShoulder
				{
					OFFSET 4.363600 0.000000 0.000000
					CHANNELS 6 Xposition Yposition Zposition Zrotation Xrotation Yrotation
					JOINT LeftElbow
					{
						OFFSET 0.000000 -0.000001 -10.306900
						CHANNELS 6 Xposition Yposition Zposition Zrotation Xrotation Yrotation
						JOINT LeftWrist
						{
							OFFSET 0.000000 -0.000001 -12.404900
							CHANNELS 6 Xposition Yposition Zposition Zrotation Xrotation Yrotation
							End Site
							{
								OFFSET 0.000000 0.000000 -2.173901
							}
						}
					}
				}
			}
			JOINT RightCollar
			{
				OFFSET -2.354800 -1.897200 5.063099
				CHANNELS 6 Xposition Yposition Zposition Zrotation Xrotation Yrotation
				JOINT RightShoulder
				{
					OFFSET -4.375800 0.000000 0.000000
					CHANNELS 6 Xposition Yposition Zposition Zrotation Xrotation Yrotation
					JOINT RightElbow
					{
						OFFSET 0.000000 -0.000001 -10.005001
						CHANNELS 6 Xposition Yposition Zposition Zrotation Xrotation Yrotation
						JOINT RightWrist
						{
							OFFSET 0.000000 -0.000001 -13.174900
							CHANNELS 6 Xposition Yposition Zposition Zrotation Xrotation Yrotation
							End Site
							{
								OFFSET 0.000000 0.000000 -2.173901
							}
						}
					}
				}
			}
		}
	}
	JOINT LeftHip
	{
		OFFSET 2.240600 0.386800 -2.614101
		CHANNELS 6 Xposition Yposition Zposition Zrotation Xrotation Yrotation
		JOINT LeftKnee
		{
			OFFSET 0.000000 -0.000001 -18.592899
			CHANNELS 6 Xposition Yposition Zposition Zrotation Xrotation Yrotation
			JOINT LeftAnkle
			{
				OFFSET 0.000000 -0.000001 -18.765800
				CHANNELS 6 Xposition Yposition Zposition Zrotation Xrotation Yrotation
				End Site
				{
					OFFSET 0.000000 -8.655000 0.000000
				}
			}
		}
	}
	JOINT RightHip
	{
		OFFSET -2.014900 -0.220900 -2.615898
		CHANNELS 6 Xposition Yposition Zposition Zrotation Xrotation Yrotation
		JOINT RightKnee
		{
			OFFSET 0.000000 -0.000001 -18.633900
			CHANNELS 6 Xposition Yposition Zposition Zrotation Xrotation Yrotation
			JOINT RightAnkle
			{
				OFFSET 0.000000 -0.000001 -18.285101
				CHANNELS 6 Xposition Yposition Zposition Zrotation Xrotation Yrotation
				End Site
				{
					OFFSET 0.000000 -7.524500 0.000000
				}
			}
		}
	}
}
MOTION
Frames: 4
Frame Time: 0.041667
-6.026100 26.337803 7.374802 2.071024 -1.428185 4.545054 -0.204900 1.598100 7.917312 -1.058033 21.221302 1.564669 0.000001 -0.000000 3.404104 -10.444839 -14.189277 -2.722545 -0.000001 -0.000002 7.928600 29.878676 -3.680501 -16.783586 0.000000 0.000000 2.173897 4.275775 -4.334876 5.953655 2.833805 -1.396304 4.843304 -2.108421 10.040299 16.671187 4.363592 0.000008 -0.000007 -20.332498 -3.060694 -76.134268 -0.000002 0.000001 -10.306898 630.251389 -163.378029 548.215735 0.000001 0.000002 -12.404895 47.446244 358.901197 -349.931847 -2.354801 -1.897203 5.063107 8.840638 8.835643 -16.426255 -4.375789 0.000008 -0.000003 33.316198 -37.368313 105.469315 -0.000003 0.000012 -10.004999 -631.161662 -165.047683 -599.508544 -0.000000 0.000002 -13.174894 75.484915 -20.236362 393.516814 2.240597 0.386799 -2.614097 141.730865 -33.462688 108.725997 0.000000 -0.000002 -18.592896 -117.599697 36.722686 135.633009 -0.000001 0.000001 -18.765799 10.000673 34.466094 -1.472087 -2.014898 -0.220902 -2.615896 -114.235576 -17.414086 -94.228484 0.000000 0.000003 -18.633888 171.706311 27.260417 -178.624227 -0.000006 -0.000002 -18.285086 -16.644560 32.946469 -206.242603
-6.026800 26.354801 7.363705 2.091195 -1.481475 4.578044 -0.204899 1.598098 7.917309 -1.036496 21.581692 1.534085 0.000000 0.000001 3.404103 -10.390325 -14.187994 -2.713920 -0.000002 0.000003 7.928598 29.611787 -3.623097 -16.717142 0.000000 0.000001 2.173896 4.280413 -4.309777 5.879553 2.833802 -1.396298 4.843303 -2.176979 10.106318 16.569317 4.363587 0.000003 -0.000001 -20.184162 -3.521830 -75.951007 -0.000000 0.000002 -10.306897 629.967690 -163.231973 548.328953 0.000002 0.000001 -12.404895 47.115444 358.918463 -349.011602 -2.354802 -1.897198 5.063101 8.892157 8.841410 -16.472256 -4.375792 0.000008 -0.000003 33.206529 -37.585056 105.127239 0.000001 0.000011 -10.005000 -631.361049 -165.198384 -599.656950 -0.000003 0.000003 -13.174891 75.600987 -20.321512 393.166507 2.240598 0.386802 -2.614101 141.685062 -33.425238 108.731072 -0.000001 0.000002 -18.592888 -117.611882 36.704928 135.551483 -0.000001 0.000001 -18.765797 9.943418 34.464376 -1.047073 -2.014898 -0.220896 -2.615899 -114.230850 -17.423999 -94.177551 0.000000 0.000003 -18.633883 171.689523 27.269783 -178.641248 -0.000005 -0.000009 -18.285086 -16.652850 32.949615 -206.233628
-6.027600 26.372002 7.352509 2.097117 -1.540989 4.605459 -0.204900 1.598103 7.917303 -0.998859 21.938726 1.475844 0.000001 0.000001 3.404104 -10.294689 -14.173518 -2.698875 -0.000003 0.000001 7.928605 29.310531 -3.529795 -16.600502 -0.000000 0.000001 2.173901 4.268634 -4.342017 5.859152 2.833800 -1.396301 4.843305 -2.347370 10.211043 16.451443 4.363589 0.000006 -0.000001 -19.984355 -4.092603 -75.743881 -0.000004 -0.000001 -10.306898 629.662135 -163.122498 548.446268 0.000002 0.000001 -12.404896 46.852072 359.133259 -348.074281 -2.354804 -1.897200 5.063101 8.937987 8.848881 -16.411741 -4.375789 0.000004 -0.000003 32.945271 -37.847789 104.651605 0.000004 0.000008 -10.005003 -631.587210 -165.313514 -599.890488 -0.000003 0.000002 -13.174891 75.602777 -20.281118 392.934636 2.240597 0.386806 -2.614103 141.651648 -33.392344 108.730403 0.000001 -0.000001 -18.592894 -117.614751 36.680093 135.464276 -0.000000 0.000001 -18.765797 9.888783 34.459524 -0.599200 -2.014899 -0.220894 -2.615900 -114.218303 -17.405755 -94.124733 -0.000000 0.000002 -18.633884 171.689796 27.272520 -178.648707 -0.000006 -0.000005 -18.285082 -16.670327 32.951384 -206.211812
-6.028800 26.389303 7.341118 2.088419 -1.589813 4.633466 -0.204900 1.598094 7.917304 -0.945904 22.269434 1.400412 0.000001 -0.000001 3.404100 -10.180622 -14.144499 -2.680749 -0.000004 0.000001 7.928601 28.985537 -3.400319 -16.460064 0.000001 0.000001 2.173900 4.250180 -4.375066 5.824059 2.833800 -1.396303 4.843304 -2.567344 10.316401 16.361607 4.363592 0.000001 -0.000004 -19.732027 -4.757608 -75.566235 -0.000005 -0.000001 -10.306897 629.271940 -163.040686 548.571998 0.000003 0.000001 -12.404895 46.755353 359.252405 -347.201684 -2.354805 -1.897202 5.063102 8.985320 8.856826 -16.257539 -4.375791 0.000005 -0.000007 32.530214 -38.121403 104.014752 -0.000001 0.000005 -10.004995 -631.887083 -165.429040 -600.203857 -0.000002 0.000004 -13.174894 75.568742 -20.247259 392.732626 2.240598 0.386801 -2.614102 141.641362 -33.363002 108.745545 0.000001 -0.000001 -18.592892 -117.604410 36.649794 135.376153 -0.000000 -0.000000 -18.765799 9.845564 34.449183 -0.157542 -2.014897 -0.220899 -2.615897 -114.193496 -17.387949 -94.082577 0.000000 0.000003 -18.633884 171.684236 27.277948 -178.658624 -0.000006 -0.000008 -18.285084 -16.690179 32.954092 -206.189040
